<?xml version="1.0" encoding="UTF-8" standalone="no"?><!DOCTYPE svg PUBLIC "-//W3C//DTD SVG 1.1//EN" "http://www.w3.org/Graphics/SVG/1.1/DTD/svg11.dtd"><svg width="100%" height="100%" viewBox="0 0 3261 3276" version="1.1" xmlns="http://www.w3.org/2000/svg" xmlns:xlink="http://www.w3.org/1999/xlink" xml:space="preserve" xmlns:serif="http://www.serif.com/" style="fill-rule:evenodd;clip-rule:evenodd;stroke-linecap:round;stroke-linejoin:round;stroke-miterlimit:1.5;"><rect id="Shading" x="0" y="0" width="3260.5" height="3275.37" style="fill:none;"/><path id="AlgeHinten" d="M2326.51,2990.67c-10.838,54.606 50.524,-121.512 10.872,-200.814c-39.651,-79.303 -245.842,-437.704 -248.892,-477.348c-3.05,-39.645 -210.419,-359.848 -54.892,-734.942c155.527,-375.095 338.5,-478.78 396.442,-737.992c57.941,-259.212 173.824,-311.054 121.982,-484.878c-51.843,-173.825 -48.685,-146.387 -54.313,-157.131c-5.628,-10.745 -20.465,-44.512 -12.279,67.023c8.186,111.535 5.116,98.233 -1.024,140.187c-6.139,41.953 -1.534,64.977 -10.744,105.907c-9.209,40.931 -109.587,379.739 -186.094,474.983c-76.507,95.243 -263.872,401.436 -274.801,437.348c-10.93,35.911 -67.139,177.996 -84.314,295.098c-17.175,117.103 -28.105,206.101 3.122,359.116c31.228,153.014 113.98,371.606 148.331,427.815c34.35,56.209 257.442,431.023 246.604,485.628Z" style="fill:#196100;stroke:#000;stroke-width:4.17px;"/><path id="Schwanzflosse" d="M1478.44,1508.98c-0,-0 59.581,2.342 75.544,22.807c15.963,20.465 111.33,72.446 195.238,63.851c37.766,-3.869 57.87,-8.816 68.001,-14.392c5.388,-2.966 45.287,-36.897 47.483,-39.463c85.551,-99.995 44.171,-51.123 -2.042,-2.207c-13.982,14.801 -26.074,16.421 -32.189,21.557c-11.935,10.024 -39.426,-56.101 -40.799,-67.521c-0.612,-5.085 -9.909,-97.177 7.727,-161.604c11.588,-42.336 43.035,-142.481 141.048,-233.731c17.105,-15.925 35.922,-65.421 36.424,-67.848c1.341,-6.488 3.19,-14.869 6.385,-24.466c7.712,-23.158 23.268,-53.392 58.468,-81.161c112.418,-88.686 -122.412,119.914 -232.333,117.416c-109.92,-2.499 -203.603,126.158 -222.339,134.902c-18.737,8.744 -46.217,58.708 -81.191,69.95c-34.975,11.241 -25.425,261.91 -25.425,261.91Z" style="fill:#f3e9dd;"/><clipPath id="_clip1"><path d="M1478.44,1508.98c-0,-0 59.581,2.342 75.544,22.807c15.963,20.465 111.33,72.446 195.238,63.851c37.766,-3.869 57.87,-8.816 68.001,-14.392c5.388,-2.966 45.287,-36.897 47.483,-39.463c85.551,-99.995 44.171,-51.123 -2.042,-2.207c-13.982,14.801 -26.074,16.421 -32.189,21.557c-11.935,10.024 -39.426,-56.101 -40.799,-67.521c-0.612,-5.085 -9.909,-97.177 7.727,-161.604c11.588,-42.336 43.035,-142.481 141.048,-233.731c17.105,-15.925 35.922,-65.421 36.424,-67.848c1.341,-6.488 3.19,-14.869 6.385,-24.466c7.712,-23.158 23.268,-53.392 58.468,-81.161c112.418,-88.686 -122.412,119.914 -232.333,117.416c-109.92,-2.499 -203.603,126.158 -222.339,134.902c-18.737,8.744 -46.217,58.708 -81.191,69.95c-34.975,11.241 -25.425,261.91 -25.425,261.91Z"/></clipPath><g clip-path="url(#_clip1)"><path d="M1548.12,1268.51c-0,-0 77.384,-44.768 87.617,-79.303c10.232,-34.535 85.698,-79.302 111.279,-84.419c25.582,-5.116 154.128,-26.221 180.349,-63.314" style="fill:none;stroke:#000;stroke-width:3.18px;"/><path d="M1566.03,1295.69c0,0 72.747,-32.776 93.532,-75.945c5.484,-11.389 46.421,-60.245 79.143,-63.954c31.126,-3.527 111.772,-18.736 155.088,-58.357" style="fill:none;stroke:#000;stroke-width:3.18px;"/><path d="M1582.02,1328.46c0,0 63.954,-27.18 84.739,-51.962c20.785,-24.782 79.143,-59.157 89.535,-55.959c10.393,3.197 55.16,-20.785 63.155,-28.78" style="fill:none;stroke:#000;stroke-width:3.18px;"/><path d="M1610,1385.22c16.788,-3.197 105.524,-25.581 119.913,-19.186" style="fill:none;stroke:#000;stroke-width:3.18px;"/><path d="M1607.6,1362.04c-0,0 122.311,-91.134 164.681,-82.34" style="fill:none;stroke:#000;stroke-width:3.18px;"/><path d="M1604.4,1434.79c0,0 71.948,39.972 127.108,29.579" style="fill:none;stroke:#000;stroke-width:3.18px;"/><path d="M1554.84,1489.15c0,0 95.931,90.335 186.265,68.75" style="fill:none;stroke:#000;stroke-width:3.18px;"/><path d="M1586.81,1453.17c-0,0 95.131,67.951 138.3,55.16" style="fill:none;stroke:#000;stroke-width:3.18px;"/><path d="M1608.4,1414.8c0,-0 100.727,-1.599 120.713,-4.797" style="fill:none;stroke:#000;stroke-width:3.18px;"/></g><path d="M1478.44,1508.98c-0,-0 59.581,2.342 75.544,22.807c15.963,20.465 111.33,72.446 195.238,63.851c37.766,-3.869 57.87,-8.816 68.001,-14.392c5.388,-2.966 45.287,-36.897 47.483,-39.463c85.551,-99.995 44.171,-51.123 -2.042,-2.207c-13.982,14.801 -26.074,16.421 -32.189,21.557c-11.935,10.024 -39.426,-56.101 -40.799,-67.521c-0.612,-5.085 -9.909,-97.177 7.727,-161.604c11.588,-42.336 43.035,-142.481 141.048,-233.731c17.105,-15.925 35.922,-65.421 36.424,-67.848c1.341,-6.488 3.19,-14.869 6.385,-24.466c7.712,-23.158 23.268,-53.392 58.468,-81.161c112.418,-88.686 -122.412,119.914 -232.333,117.416c-109.92,-2.499 -203.603,126.158 -222.339,134.902c-18.737,8.744 -46.217,58.708 -81.191,69.95c-34.975,11.241 -25.425,261.91 -25.425,261.91Z" style="fill:none;stroke:#000;stroke-width:3.18px;"/><path id="Koerper" d="M656.946,2469c0,0 -57.934,-96.852 -102.219,-212.552c-31.621,-82.614 -57.086,-189.532 -56.553,-246.202c1.279,-136.035 28.979,-285.125 49.804,-326.297c20.825,-41.173 39.811,-121.055 217.682,-241.967c177.871,-120.912 244.073,-158.445 316.52,-169.687c48.745,-7.564 102.014,-17.955 159.427,-18.999c27.916,-0.507 56.812,1.196 86.644,6.508c55.028,9.8 96.254,9.975 124.64,7.676c18.652,-1.511 35.313,-10.118 43.025,-16.127c8.812,-6.867 17.201,0.956 49.678,58.415c32.476,57.458 34.824,112.392 34.313,115.974c-0.512,3.581 -68.463,32.496 -80.742,50.652c-7.631,11.284 -9.142,17.571 -16.977,29.964c-4.46,7.054 -26.668,1.89 -42.782,-1.984c-42.567,-10.232 -56.015,-6.157 -74.562,-2.959c-18.546,3.197 -79.302,21.104 -89.535,26.86c-10.232,5.756 -40.291,7.035 -72.907,40.291c-32.616,33.256 -39.425,51.266 -46.686,57.302c-10.616,8.826 -53.798,61.3 -63.764,76.249c-10.232,15.348 -81.988,103.604 -97.465,132.128c-20.538,37.852 -28.395,57.81 -28.395,84.671c-0,26.86 13.43,85.058 39.651,125.349c26.221,40.291 114.533,162.292 117.48,168.186c2.947,5.894 -466.277,256.549 -466.277,256.549Z" style="fill:#f1935c;"/><clipPath id="_clip2"><path d="M656.946,2469c0,0 -57.934,-96.852 -102.219,-212.552c-31.621,-82.614 -57.086,-189.532 -56.553,-246.202c1.279,-136.035 28.979,-285.125 49.804,-326.297c20.825,-41.173 39.811,-121.055 217.682,-241.967c177.871,-120.912 244.073,-158.445 316.52,-169.687c48.745,-7.564 102.014,-17.955 159.427,-18.999c27.916,-0.507 56.812,1.196 86.644,6.508c55.028,9.8 96.254,9.975 124.64,7.676c18.652,-1.511 35.313,-10.118 43.025,-16.127c8.812,-6.867 17.201,0.956 49.678,58.415c32.476,57.458 34.824,112.392 34.313,115.974c-0.512,3.581 -68.463,32.496 -80.742,50.652c-7.631,11.284 -9.142,17.571 -16.977,29.964c-4.46,7.054 -26.668,1.89 -42.782,-1.984c-42.567,-10.232 -56.015,-6.157 -74.562,-2.959c-18.546,3.197 -79.302,21.104 -89.535,26.86c-10.232,5.756 -40.291,7.035 -72.907,40.291c-32.616,33.256 -39.425,51.266 -46.686,57.302c-10.616,8.826 -53.798,61.3 -63.764,76.249c-10.232,15.348 -81.988,103.604 -97.465,132.128c-20.538,37.852 -28.395,57.81 -28.395,84.671c-0,26.86 13.43,85.058 39.651,125.349c26.221,40.291 114.533,162.292 117.48,168.186c2.947,5.894 -466.277,256.549 -466.277,256.549Z"/></clipPath><g clip-path="url(#_clip2)"><path d="M1107.57,1532.37c7.31,-18.985 -13.896,-57.047 -0.043,-82.729c10.855,-20.123 47.988,-19.962 63.242,-35.319c25.16,-25.327 30.919,-61.729 41.179,-68.343c17.878,-11.525 61.464,-9.537 82.27,9.304c40.517,36.692 11.161,149.141 -9.277,68.727c-7.183,-28.261 -44.967,39.971 -31.227,71.199c13.74,31.227 -24.46,55.927 -30.19,54.699c-5.73,-1.228 -71.161,31.029 -72.856,52.39c-2.047,25.786 -78.298,-19.584 -43.098,-69.928Z" style="fill:#f3e9dd;"/><path d="M651.867,2251.21c24.981,21.938 59.654,-23.437 84.636,-63.954c19.662,-31.889 38.073,-62.058 14.812,-100.837c-6.292,-10.491 -91.203,-45.733 -99.448,-53.978c-4.052,-4.052 -4.512,-52.138 -8.505,-56.153c-34.168,-34.36 -68.384,-19.571 -71.739,21.81c-3.748,46.216 -61.446,117.986 -2.738,110.491c58.707,-7.494 87.676,-0.368 63.943,42.624c-23.733,42.992 -5.943,78.059 19.039,99.997Z" style="fill:#f3e9dd;"/><path d="M627.985,1561.13c-13.242,4.237 -37.428,44.366 -39.926,47.525c-3.452,4.367 -4.911,24.967 -1.228,38.883c3.684,13.917 0.819,26.605 -12.688,42.568c-13.507,15.963 31.107,23.739 39.702,34.381c8.596,10.642 12.975,55.972 50.836,-12.074c37.86,-68.047 45.535,-120.744 35.302,-128.93c-10.233,-8.187 -47.557,10.744 -47.557,10.744c0,-0 -13.789,-11.768 0,-23.024l13.79,-11.255c-0,-0 29.674,-17.396 13.814,-26.093c-15.861,-8.698 -40.149,23.468 -52.045,27.275Z" style="fill:#f3e9dd;"/></g><path d="M656.946,2469c0,0 -57.934,-96.852 -102.219,-212.552c-31.621,-82.614 -57.086,-189.532 -56.553,-246.202c1.279,-136.035 28.979,-285.125 49.804,-326.297c20.825,-41.173 39.811,-121.055 217.682,-241.967c177.871,-120.912 244.073,-158.445 316.52,-169.687c48.745,-7.564 102.014,-17.955 159.427,-18.999c27.916,-0.507 56.812,1.196 86.644,6.508c55.028,9.8 96.254,9.975 124.64,7.676c18.652,-1.511 35.313,-10.118 43.025,-16.127c8.812,-6.867 17.201,0.956 49.678,58.415c32.476,57.458 34.824,112.392 34.313,115.974c-0.512,3.581 -68.463,32.496 -80.742,50.652c-7.631,11.284 -9.142,17.571 -16.977,29.964c-4.46,7.054 -26.668,1.89 -42.782,-1.984c-42.567,-10.232 -56.015,-6.157 -74.562,-2.959c-18.546,3.197 -79.302,21.104 -89.535,26.86c-10.232,5.756 -40.291,7.035 -72.907,40.291c-32.616,33.256 -39.425,51.266 -46.686,57.302c-10.616,8.826 -53.798,61.3 -63.764,76.249c-10.232,15.348 -81.988,103.604 -97.465,132.128c-20.538,37.852 -28.395,57.81 -28.395,84.671c-0,26.86 13.43,85.058 39.651,125.349c26.221,40.291 114.533,162.292 117.48,168.186c2.947,5.894 -466.277,256.549 -466.277,256.549Z" style="fill:none;stroke:#000;stroke-width:3.18px;"/><g id="Rueckenflosse"><path d="M1054,1263.24l-7.866,15.732c72.974,-16.976 141.182,-25.613 204.688,-26.008c29.316,-0.183 57.63,1.39 84.948,4.71c-12.401,-9.211 -44.581,-32.804 -54.187,-37.927c-11.992,-6.395 -66.253,-0.1 -105.287,-9.859c-39.034,-9.758 -81.972,19.518 -107.344,35.131c-4.691,2.887 -9.783,9.444 -14.952,18.221Z" style="fill:#f3e9dd;"/><clipPath id="_clip3"><path d="M1054,1263.24l-7.866,15.732c72.974,-16.976 141.182,-25.613 204.688,-26.008c29.316,-0.183 57.63,1.39 84.948,4.71c-12.401,-9.211 -44.581,-32.804 -54.187,-37.927c-11.992,-6.395 -66.253,-0.1 -105.287,-9.859c-39.034,-9.758 -81.972,19.518 -107.344,35.131c-4.691,2.887 -9.783,9.444 -14.952,18.221Z"/></clipPath><g clip-path="url(#_clip3)"><path d="M1069.5,1266.14c-4.847,-5.004 -12.968,-4.185 -17.815,1.735" style="fill:none;stroke:#000;stroke-width:3.18px;"/><path d="M1089.96,1259.59c-8.414,-7.242 -18.449,-9.625 -31.229,-3.769" style="fill:none;stroke:#000;stroke-width:3.18px;"/><path d="M1114.11,1255.9c-5.658,-12.955 -22.349,-15.791 -40.563,-13.735" style="fill:none;stroke:#000;stroke-width:3.18px;"/><path d="M1137.44,1251.4c-7.001,-14.491 -23.692,-19.108 -46.522,-19.819" style="fill:none;stroke:#000;stroke-width:3.18px;"/><path d="M1166.91,1246.08c-4.891,-14.743 -23.393,-24.477 -49.022,-28.306" style="fill:none;stroke:#000;stroke-width:3.18px;"/><path d="M1192.7,1243.63c-10.881,-21.404 -31.589,-30.989 -50.06,-33.822" style="fill:none;stroke:#000;stroke-width:3.18px;"/><path d="M1220.12,1241.58c-8.406,-16.953 -25.175,-26.399 -47.224,-32.437" style="fill:none;stroke:#000;stroke-width:3.18px;"/><path d="M1250.82,1239.53c-14.542,-16.422 -18.451,-23.113 -34.081,-24.252" style="fill:none;stroke:#000;stroke-width:3.18px;"/></g><path d="M1054,1263.24l-7.866,15.732c72.974,-16.976 141.182,-25.613 204.688,-26.008c29.316,-0.183 57.63,1.39 84.948,4.71c-12.401,-9.211 -44.581,-32.804 -54.187,-37.927c-11.992,-6.395 -66.253,-0.1 -105.287,-9.859c-39.034,-9.758 -81.972,19.518 -107.344,35.131c-4.691,2.887 -9.783,9.444 -14.952,18.221Z" style="fill:none;stroke:#000;stroke-width:3.18px;"/><path d="M1053.73,1263.7l0.268,-0.455c5.169,-8.777 10.261,-15.334 14.952,-18.221c25.372,-15.613 68.31,-44.889 107.344,-35.131c39.034,9.759 93.295,3.464 105.287,9.859c9.606,5.123 41.786,28.716 54.187,37.927l1.529,0.148c-17.872,-17.761 -106.24,-94.249 -256.149,-47.397l-0.88,0.276c-19.083,5.922 -39.106,13.9 -60.099,24.235c-2.505,1.233 -5.012,2.656 -7.519,4.253c-54.721,34.846 -109.198,152.208 -140.597,180.899c-12.171,11.122 -70.538,91.735 -70.538,91.735c-0,0 -64.016,123.349 -64.016,198.295c-0,74.945 -37.473,157.698 6.245,293.537c43.719,135.84 153.995,183.601 153.995,183.601c9.381,-30.909 -15.354,-75.323 14.473,-112.777c26.16,-32.849 22.677,-48.889 35.623,-85.418c0,-0 -93.574,-70.7 -93.574,-197.562c0,-126.861 29.276,-183.461 72.214,-240.061c13.806,-18.199 80.02,-167.847 80.02,-167.847c-0,0 24.445,-81.056 47.235,-119.896Z" style="fill:#f3e9dd;"/><clipPath id="_clip4"><path d="M1053.73,1263.7l0.268,-0.455c5.169,-8.777 10.261,-15.334 14.952,-18.221c25.372,-15.613 68.31,-44.889 107.344,-35.131c39.034,9.759 93.295,3.464 105.287,9.859c9.606,5.123 41.786,28.716 54.187,37.927l1.529,0.148c-17.872,-17.761 -106.24,-94.249 -256.149,-47.397l-0.88,0.276c-19.083,5.922 -39.106,13.9 -60.099,24.235c-2.505,1.233 -5.012,2.656 -7.519,4.253c-54.721,34.846 -109.198,152.208 -140.597,180.899c-12.171,11.122 -70.538,91.735 -70.538,91.735c-0,0 -64.016,123.349 -64.016,198.295c-0,74.945 -37.473,157.698 6.245,293.537c43.719,135.84 153.995,183.601 153.995,183.601c9.381,-30.909 -15.354,-75.323 14.473,-112.777c26.16,-32.849 22.677,-48.889 35.623,-85.418c0,-0 -93.574,-70.7 -93.574,-197.562c0,-126.861 29.276,-183.461 72.214,-240.061c13.806,-18.199 80.02,-167.847 80.02,-167.847c-0,0 24.445,-81.056 47.235,-119.896Z"/></clipPath><g clip-path="url(#_clip4)"><path d="M777.101,1636.72c9.566,-26.464 35.729,-39.164 71.948,-22.983" style="fill:none;stroke:#000;stroke-width:3.18px;"/><path d="M761.112,1742.64c4.842,-44.212 55.73,-78.747 73.947,-57.958" style="fill:none;stroke:#000;stroke-width:3.18px;"/><path d="M748.122,1855.56c19.698,4.089 32.004,-20.597 32.976,-53.961c-5.739,2.988 15.624,-42.77 46.966,-51.962" style="fill:none;stroke:#000;stroke-width:3.18px;"/><path d="M1029.79,1241.07c9.087,-5.552 22.808,-11.648 47.965,-8.954" style="fill:none;stroke:#000;stroke-width:3.18px;"/><path d="M978.623,1299.27c6.259,-26.402 44.83,-49.16 64.593,-35.814" style="fill:none;stroke:#000;stroke-width:3.18px;"/><path d="M759.583,1940.11c-0,0 28.139,-6.395 30.697,-31.337c2.559,-24.942 13.431,-35.175 22.384,-44.128" style="fill:none;stroke:#000;stroke-width:3.18px;"/><path d="M783.885,2019.42c-6.875,-25.14 8.751,-51.922 21.589,-55.948c14.668,-4.599 28.468,-34.218 31.493,-61.087" style="fill:none;stroke:#000;stroke-width:3.18px;"/><path d="M858.54,2124.69c-1.97,-25.451 -9.231,-58.788 10.383,-73.35c4.078,-3.027 7.767,-6.176 11.092,-9.43c17.689,-17.314 25.038,-37.582 25.491,-58.118" style="fill:none;stroke:#000;stroke-width:3.18px;"/><path d="M820.414,2080c-0,-0 -6.269,-38.742 2.545,-57.96c8.184,-17.843 39.674,-31.083 46.06,-68.413" style="fill:none;stroke:#000;stroke-width:3.18px;"/></g><path d="M1053.73,1263.7l0.268,-0.455c5.169,-8.777 10.261,-15.334 14.952,-18.221c25.372,-15.613 68.31,-44.889 107.344,-35.131c39.034,9.759 93.295,3.464 105.287,9.859c9.606,5.123 41.786,28.716 54.187,37.927l1.529,0.148c-17.872,-17.761 -106.24,-94.249 -256.149,-47.397l-0.88,0.276c-19.083,5.922 -39.106,13.9 -60.099,24.235c-2.505,1.233 -5.012,2.656 -7.519,4.253c-54.721,34.846 -109.198,152.208 -140.597,180.899c-12.171,11.122 -70.538,91.735 -70.538,91.735c-0,0 -64.016,123.349 -64.016,198.295c-0,74.945 -37.473,157.698 6.245,293.537c43.719,135.84 153.995,183.601 153.995,183.601c9.381,-30.909 -15.354,-75.323 14.473,-112.777c26.16,-32.849 22.677,-48.889 35.623,-85.418c0,-0 -93.574,-70.7 -93.574,-197.562c0,-126.861 29.276,-183.461 72.214,-240.061c13.806,-18.199 80.02,-167.847 80.02,-167.847c-0,0 24.445,-81.056 47.235,-119.896Z" style="fill:none;stroke:#000;stroke-width:3.18px;"/></g><path id="V" d="M135.821,616.195c0,0 -6.245,109.296 124.91,109.296c131.155,0 92.121,-3.122 92.121,-3.122c-0,-0 388.422,553.477 702.526,1267.07c314.104,713.596 622.109,1097.84 622.109,1097.84c0,-0 202.656,-408.113 321.845,-679.655c114.908,-261.786 175.911,-366.502 175.911,-366.502l163.944,-353.26l368.874,-640.162l154.186,-294.709c-0,-0 50.744,-83.924 103.44,-105.393c52.697,-21.469 92.962,-10.607 116.625,-29.154c23.663,-18.546 126.628,-111.919 55,-102.965c-71.628,8.953 -597.968,14.549 -602.445,26.221c-4.476,11.671 -4.476,43.648 7.515,57.238c11.991,13.59 50.364,38.373 60.756,39.971c10.393,1.599 40.771,11.992 81.541,11.992c40.771,-0 94.332,-2.399 87.137,9.593c-7.195,11.991 -86.337,138.3 -91.933,143.896c-5.596,5.596 -188.364,306.578 -188.364,306.578l-301.033,540.859c0,0 -168.628,311.026 -178.621,332.26c-9.992,21.235 -108.671,251.069 -108.671,251.069l-48.244,104.268l-83.924,175.654c0,0 -52.696,122.958 -76.117,85.875c-23.42,-37.082 -66.358,-109.296 -66.358,-109.296l-210.785,-343.501l-249.819,-484.025l-240.061,-472.315l-222.496,-429.377c0,-0 -33.338,-30.422 -1.361,-44.812c31.977,-14.389 137.5,-54.361 137.5,-54.361c0,0 32.777,-16.787 32.777,-39.171c-0,-22.384 17.587,-51.163 -14.39,-46.367c-31.977,4.797 -347.749,22.384 -347.749,22.384l-376.346,16.08Z" style="fill:#a60068;stroke:#000;stroke-width:4.17px;"/><path id="AlgeVorn" d="M2120.16,3005.54c-0,-0 141.042,-125.794 156.29,-251.588c15.247,-125.794 26.683,-434.561 15.247,-689.961c-11.436,-255.4 -118.17,-198.221 -102.922,-453.621c15.248,-255.4 -68.615,-282.084 -7.624,-487.929c60.991,-205.844 106.734,-385.006 125.794,-423.125c19.06,-38.119 8.588,-127.831 3.592,-153.812c-4.997,-25.981 -38.972,-63.954 -45.967,-66.952c-6.995,-2.997 -15.988,18.987 -10.992,62.955c4.996,43.968 15.988,33.975 -3.997,107.922c-19.986,73.946 -14.989,71.948 -41.97,130.905c-26.98,58.957 -98.928,152.46 -135.902,352.745c-36.973,200.285 11.992,379.156 14.99,403.138c2.997,23.983 6.995,148.893 54.96,293.788c47.965,144.895 19.985,223.838 43.968,288.791c23.983,64.953 9.993,234.83 5.996,285.793c-3.997,50.963 -0,253.677 -11.992,311.635c-11.991,57.958 -22.983,134.902 -33.975,157.886c-10.992,22.983 -25.496,131.43 -25.496,131.43Z" style="fill:#196100;stroke:#000;stroke-width:4.17px;"/><g id="Blasen"><ellipse cx="2248.32" cy="272.488" rx="41.22" ry="40.596" style="fill:#6feaff;fill-opacity:0.68;stroke:#000;stroke-width:2.43px;"/><circle cx="2398.96" cy="74.347" r="28.971" style="fill:#6feaff;fill-opacity:0.68;stroke:#000;stroke-width:2.43px;"/><ellipse cx="2295.56" cy="214.322" rx="19.361" ry="18.112" style="fill:#6feaff;fill-opacity:0.68;stroke:#000;stroke-width:2.43px;"/><ellipse cx="2226.23" cy="484.751" rx="16.238" ry="17.487" style="fill:#6feaff;fill-opacity:0.68;stroke:#000;stroke-width:2.43px;"/><circle cx="2284.32" cy="365.462" r="18.112" style="fill:#6feaff;fill-opacity:0.68;stroke:#000;stroke-width:2.43px;"/><ellipse cx="1315.64" cy="1647.66" rx="42.469" ry="46.217" style="fill:#6feaff;fill-opacity:0.68;stroke:#000;stroke-width:2.43px;"/><ellipse cx="1172.62" cy="1838.77" rx="35.599" ry="38.722" style="fill:#6feaff;fill-opacity:0.68;stroke:#000;stroke-width:2.43px;"/><ellipse cx="1308.15" cy="1944.32" rx="36.224" ry="34.35" style="fill:#6feaff;fill-opacity:0.68;stroke:#000;stroke-width:2.43px;"/><ellipse cx="1248.82" cy="2162.91" rx="30.603" ry="29.354" style="fill:#6feaff;fill-opacity:0.68;stroke:#000;stroke-width:2.43px;"/><ellipse cx="1263.18" cy="2034.88" rx="12.491" ry="13.74" style="fill:#6feaff;fill-opacity:0.68;stroke:#000;stroke-width:2.43px;"/><ellipse cx="1300.03" cy="1750.71" rx="11.866" ry="13.116" style="fill:#6feaff;fill-opacity:0.68;stroke:#000;stroke-width:2.43px;"/><ellipse cx="1353.12" cy="1547.11" rx="11.242" ry="10.617" style="fill:#6feaff;fill-opacity:0.68;stroke:#000;stroke-width:2.43px;"/><ellipse cx="1262.56" cy="2344.66" rx="13.116" ry="13.74" style="fill:#6feaff;fill-opacity:0.68;stroke:#000;stroke-width:2.43px;"/><ellipse cx="1153.88" cy="2025.51" rx="10.617" ry="11.866" style="fill:#6feaff;fill-opacity:0.68;stroke:#000;stroke-width:2.43px;"/><ellipse cx="433.781" cy="2000.53" rx="28.729" ry="30.603" style="fill:#6feaff;fill-opacity:0.68;stroke:#000;stroke-width:2.43px;"/><ellipse cx="423.164" cy="2067.36" rx="10.617" ry="11.242" style="fill:#6feaff;fill-opacity:0.68;stroke:#000;stroke-width:2.43px;"/><ellipse cx="405.052" cy="1948.69" rx="13.74" ry="14.989" style="fill:#6feaff;fill-opacity:0.68;stroke:#000;stroke-width:2.43px;"/><ellipse cx="980.885" cy="2583.86" rx="17.487" ry="18.112" style="fill:#6feaff;fill-opacity:0.68;stroke:#000;stroke-width:2.43px;"/><circle cx="2033.81" cy="895.606" r="21.957" style="fill:#6feaff;fill-opacity:0.68;stroke:#000;stroke-width:2.43px;"/></g><g id="Koi"><g id="Gesicht"><path id="Kopf" d="M1230.49,2427.73c0,-0 72.948,109.92 42.969,157.885c-29.978,47.965 -58.957,-0.999 -93.932,42.969c-22.986,28.897 -18.556,41.035 -28.601,62.165c-5.239,11.02 -7.979,26.632 -34.353,43.758c-76.944,49.964 -223.838,-60.201 -223.838,-60.201l-62.954,-40.97c-0,-0 -62.95,-46.436 -65.953,-71.948c-3.002,-25.513 -67.886,-38.81 -72.947,-39.971c-5.06,-1.162 -76.944,-61.955 -11.991,-186.865c64.953,-124.909 167.878,0 226.836,-22.983c58.957,-22.984 31.976,-126.908 57.958,-139.899c25.981,-12.991 73.946,-47.965 138.899,20.985c64.953,68.95 63.954,48.964 78.943,98.928c14.989,49.964 12.99,91.934 31.977,110.92c18.986,18.986 16.987,25.227 16.987,25.227Z" style="fill:#f3e9dd;stroke:#000;stroke-width:4.17px;"/><g id="AugeRechts"><path d="M1116.96,2370.82c0,0 -9.209,-76.233 15.349,-100.791" style="fill:#f3e9dd;fill-opacity:0.5;stroke:#000;stroke-width:4.17px;"/><path d="M1077.57,2366.13c-0,-0 -4.093,-23.535 1.535,-30.187" style="fill:#f3e9dd;fill-opacity:0.5;stroke:#000;stroke-width:3.18px;"/><ellipse cx="1157.69" cy="2335.28" rx="22.39" ry="25.502" style="fill:#f3e9dd;fill-opacity:0.5;stroke:#000;stroke-width:3.18px;"/><ellipse cx="1162.57" cy="2345.48" rx="11.576" ry="11.32" style="fill:#050505;stroke:#000;stroke-width:3.18px;"/></g><path id="Mund" d="M1226.69,2608.51c-18.901,0.964 -37.181,7.814 -48.877,22.137c-16.352,20.024 -22.96,50.592 -27.976,64.259c-8.603,23.442 122.182,-88.708 76.853,-86.396Z" style="fill:#716f81;stroke:#000;stroke-width:4.17px;"/><g id="Nase"><path d="M1063.81,2601.29c-0,-0 10.805,44.204 -6.876,52.39c-17.682,8.187 9.495,-46.496 6.876,-52.39Z" style="fill:#716f81;fill-opacity:0.69;stroke:#000;stroke-width:4.17px;"/><path d="M1198.76,2526.16c0,0 35.814,18.255 37.779,6.14c1.964,-12.116 -32.54,-10.069 -37.779,-6.14Z" style="fill:#716f81;fill-opacity:0.7;stroke:#000;stroke-width:4.17px;"/></g><g id="AugeLinks"><path d="M848.353,2424.54c0,0 101.814,24.047 102.838,101.814" style="fill:#f3e9dd;fill-opacity:0.5;stroke:#000;stroke-width:4.17px;"/><path d="M813.562,2507.93c-3.581,-15.349 7.675,-45.535 20.977,-42.465" style="fill:#f3e9dd;fill-opacity:0.5;stroke:#000;stroke-width:4.17px;"/><path d="M900.028,2537.61c-0,0 22,-13.814 17.395,-44" style="fill:#f3e9dd;fill-opacity:0.5;stroke:#000;stroke-width:4.17px;"/><ellipse cx="864.725" cy="2501.28" rx="30.186" ry="29.674" style="fill:#f3e9dd;fill-opacity:0.5;stroke:#000;stroke-width:3.18px;"/><ellipse cx="876.109" cy="2511.39" rx="14.581" ry="13.814" style="fill:#050505;stroke:#000;stroke-width:3.18px;"/><path d="M952.735,2407.58c0,-0 13.303,14.325 10.233,24.046" style="fill:#f3e9dd;fill-opacity:0.5;stroke:#000;stroke-width:3.18px;"/></g></g><path id="KopfFlosseLinks" d="M680.753,2512.76c-0,0 -49.856,-16.023 -112.07,44.554c-62.214,60.577 -96.923,115.26 -123.446,86.772c-26.523,-28.487 -132.532,-113.388 -141.373,-176.082c-8.841,-62.693 -36.919,-117.272 91.602,-167.311c128.521,-50.04 243.126,23.226 252.949,29.365c9.823,6.14 27.833,11.87 27.833,11.87c-0,-0 -21.015,39.274 -24.725,81.471c-4.336,49.308 29.23,89.506 29.23,89.361Z" style="fill:#f3e9dd;"/><clipPath id="_clip5"><path id="KopfFlosseLinks1" serif:id="KopfFlosseLinks" d="M680.753,2512.76c-0,0 -49.856,-16.023 -112.07,44.554c-62.214,60.577 -96.923,115.26 -123.446,86.772c-26.523,-28.487 -132.532,-113.388 -141.373,-176.082c-8.841,-62.693 -36.919,-117.272 91.602,-167.311c128.521,-50.04 243.126,23.226 252.949,29.365c9.823,6.14 27.833,11.87 27.833,11.87c-0,-0 -21.015,39.274 -24.725,81.471c-4.336,49.308 29.23,89.506 29.23,89.361Z"/></clipPath><g clip-path="url(#_clip5)"><path d="M567.111,2336.72c0,-0 -106.803,-36.454 -199.535,35.814" style="fill:none;stroke:#000;stroke-width:3.18px;"/><path d="M591.414,2376.37c-0,-0 -158.606,-22.384 -219.362,70.349" style="fill:none;stroke:#000;stroke-width:3.18px;"/><path d="M618.914,2430.09c-0,-0 -154.129,-15.349 -223.199,79.303" style="fill:none;stroke:#000;stroke-width:3.18px;"/><path d="M634.263,2468.29c-0,0 -145.815,7.499 -175.234,124.71" style="fill:none;stroke:#000;stroke-width:3.18px;"/></g><path id="KopfFlosseLinks2" serif:id="KopfFlosseLinks" d="M680.753,2512.76c-0,0 -49.856,-16.023 -112.07,44.554c-62.214,60.577 -96.923,115.26 -123.446,86.772c-26.523,-28.487 -132.532,-113.388 -141.373,-176.082c-8.841,-62.693 -36.919,-117.272 91.602,-167.311c128.521,-50.04 243.126,23.226 252.949,29.365c9.823,6.14 27.833,11.87 27.833,11.87c-0,-0 -21.015,39.274 -24.725,81.471c-4.336,49.308 29.23,89.506 29.23,89.361Z" style="fill:none;stroke:#000;stroke-width:3.18px;"/><path id="BarthaarLinks" d="M985.523,2727.45c-0,0 -90.071,160.28 -242.92,8.07c-152.849,-152.209 79.942,13.43 79.942,13.43c0,0 40.291,21.745 60.756,11.512c20.465,-10.232 50.288,-19.287 63.267,-41.015c6.369,-10.662 12.463,-4.48 20.486,0.047c8.326,4.698 18.469,7.956 18.469,7.956Z" style="fill:#f3e9dd;stroke:#000;stroke-width:4.17px;"/><path id="BarthaarRechts" d="M1263.44,2489.19c0,-0 115.89,6.759 76.494,-120.125c-39.395,-126.884 -47.07,-115.628 -41.442,-99.256c5.628,16.372 24.686,133.023 5.116,154.512c-19.569,21.488 -55.256,31.721 -55.256,31.721l15.088,33.148Z" style="fill:#f3e9dd;stroke:#000;stroke-width:4.17px;"/><path id="KoerperflosseLinks" d="M701.015,1489.43c0,-0 -68.93,-0.943 -71.488,-105.827c-2.558,-104.884 16.628,-33.256 78.024,-66.512c5.79,-3.136 71.628,115.117 71.628,115.117l-78.164,57.222Z" style="fill:#f3e9dd;"/><clipPath id="_clip6"><path id="KoerperflosseLinks1" serif:id="KoerperflosseLinks" d="M701.015,1489.43c0,-0 -68.93,-0.943 -71.488,-105.827c-2.558,-104.884 16.628,-33.256 78.024,-66.512c5.79,-3.136 71.628,115.117 71.628,115.117l-78.164,57.222Z"/></clipPath><g clip-path="url(#_clip6)"><path d="M753.984,1432.11c-25.817,4.428 -60.648,-50.644 -47.07,-94.139" style="fill:none;stroke:#000;stroke-width:3.18px;"/><path d="M733.007,1447.97c-15.612,9.346 -66.269,-33.696 -51.163,-100.28" style="fill:none;stroke:#000;stroke-width:3.18px;"/><path d="M708.449,1466.9c-7.397,1.585 -67.523,-32.272 -53.721,-110.512" style="fill:none;stroke:#000;stroke-width:3.18px;"/></g><path id="KoerperflosseLinks2" serif:id="KoerperflosseLinks" d="M701.015,1489.43c0,-0 -68.93,-0.943 -71.488,-105.827c-2.558,-104.884 16.628,-33.256 78.024,-66.512c5.79,-3.136 71.628,115.117 71.628,115.117l-78.164,57.222Z" style="fill:none;stroke:#000;stroke-width:3.18px;"/><path id="KopfFlosseRechts" d="M1181.53,2291.58c-0,0 -29.427,-100.214 52.987,-72.518c40.584,13.639 -63.182,-263.89 -161.918,-217.608c-31.977,14.989 -51.879,79.143 -31.438,96.384c47.553,40.11 109.16,175.057 140.369,193.742Z" style="fill:#f3e9dd;"/><clipPath id="_clip7"><path id="KopfFlosseRechts1" serif:id="KopfFlosseRechts" d="M1181.53,2291.58c-0,0 -29.427,-100.214 52.987,-72.518c40.584,13.639 -63.182,-263.89 -161.918,-217.608c-31.977,14.989 -51.879,79.143 -31.438,96.384c47.553,40.11 109.16,175.057 140.369,193.742Z"/></clipPath><g clip-path="url(#_clip7)"><path d="M1144.21,2201.91c0,0 11.192,-52.762 71.149,-21.584" style="fill:none;stroke:#000;stroke-width:3.18px;"/><path d="M1125.03,2170.73c0,-0 10.393,-71.149 68.75,-37.573" style="fill:none;stroke:#000;stroke-width:3.18px;"/><path d="M1102.64,2142.75c-7.664,-7.664 18.588,-69.349 59.957,-58.358" style="fill:none;stroke:#000;stroke-width:3.18px;"/><path d="M1078.66,2113.17c-0,0 3.997,-51.962 47.166,-55.16" style="fill:none;stroke:#000;stroke-width:3.18px;"/><path d="M1054.68,2085.99c7.195,-12.791 9.593,-60.756 44.768,-55.16" style="fill:none;stroke:#000;stroke-width:3.18px;"/></g><path id="KopfFlosseRechts2" serif:id="KopfFlosseRechts" d="M1181.53,2291.58c-0,0 -29.427,-100.214 52.987,-72.518c40.584,13.639 -63.182,-263.89 -161.918,-217.608c-31.977,14.989 -51.879,79.143 -31.438,96.384c47.553,40.11 109.16,175.057 140.369,193.742Z" style="fill:none;stroke:#000;stroke-width:3.18px;"/></g></svg>