<?xml version="1.0" encoding="UTF-8" standalone="no"?><!DOCTYPE svg PUBLIC "-//W3C//DTD SVG 1.1//EN" "http://www.w3.org/Graphics/SVG/1.1/DTD/svg11.dtd"><svg width="100%" height="100%" viewBox="0 0 100 100" version="1.1" xmlns="http://www.w3.org/2000/svg" xmlns:xlink="http://www.w3.org/1999/xlink" xml:space="preserve" xmlns:serif="http://www.serif.com/" style="fill-rule:evenodd;clip-rule:evenodd;stroke-linejoin:round;stroke-miterlimit:2;"><path d="M50,0c27.596,0 50,22.404 50,50c-0,27.596 -22.404,50 -50,50c-27.596,-0 -50,-22.404 -50,-50c0,-27.596 22.404,-50 50,-50Zm-0,12.5c20.697,-0 37.5,16.803 37.5,37.5c-0,20.697 -16.803,37.5 -37.5,37.5c-20.697,-0 -37.5,-16.803 -37.5,-37.5c-0,-20.697 16.803,-37.5 37.5,-37.5Z" style="fill:#fff;fill-opacity:0.5;"/><path d="M50,0c-27.614,0 -50,22.386 -50,50l12.5,0c-0,-20.711 16.789,-37.5 37.5,-37.5l-0,-12.5Z" style="fill:#fff;"/></svg>