<?xml version="1.0" encoding="UTF-8" standalone="no"?>
<!DOCTYPE svg PUBLIC "-//W3C//DTD SVG 1.1//EN" "http://www.w3.org/Graphics/SVG/1.1/DTD/svg11.dtd">
<svg width="100%" height="100%" viewBox="0 0 783 787" version="1.1" xmlns="http://www.w3.org/2000/svg" xmlns:xlink="http://www.w3.org/1999/xlink" xml:space="preserve" xmlns:serif="http://www.serif.com/" style="fill-rule:evenodd;clip-rule:evenodd;stroke-linecap:round;stroke-linejoin:round;stroke-miterlimit:1.5;">
    <g transform="matrix(1,0,0,1,-1987.39,0)">
        <g id="Shading" transform="matrix(0.489075,0,0,0.873432,1987.39,0)">
            <rect x="0" y="0" width="1600" height="900" style="fill:none;"/>
            <g id="V" transform="matrix(2.04468,0,0,1.14491,-844.876,7.67165)">
                <path d="M445.804,141.186C445.804,141.186 444.306,167.417 475.783,167.417C507.26,167.417 497.892,166.668 497.892,166.668C497.892,166.668 591.113,299.502 666.498,470.765C741.883,642.028 815.804,734.247 815.804,734.247C815.804,734.247 864.442,636.3 893.047,571.13C920.625,508.301 935.266,483.169 935.266,483.169L974.612,398.387L1063.14,244.748L1100.15,174.018C1100.15,174.018 1112.33,153.876 1124.97,148.724C1137.62,143.571 1147.28,146.178 1152.96,141.727C1158.64,137.275 1183.35,114.866 1166.16,117.015C1148.97,119.164 1022.65,120.507 1021.58,123.308C1020.5,126.109 1020.5,133.784 1023.38,137.045C1026.26,140.307 1035.47,146.255 1037.96,146.638C1040.45,147.022 1047.75,149.516 1057.53,149.516C1067.32,149.516 1080.17,148.941 1078.44,151.819C1076.72,154.696 1057.72,185.011 1056.38,186.354C1055.04,187.697 1011.17,259.932 1011.17,259.932L938.924,389.739C938.924,389.739 898.453,464.385 896.055,469.481C893.657,474.577 869.974,529.737 869.974,529.737L858.395,554.762L838.254,596.919C838.254,596.919 825.607,626.429 819.986,617.529C814.365,608.629 804.06,591.298 804.06,591.298L753.471,508.857L693.515,392.691L635.9,279.336L582.501,176.285C582.501,176.285 574.5,168.984 582.174,165.531C589.849,162.077 615.174,152.484 615.174,152.484C615.174,152.484 623.041,148.455 623.041,143.083C623.041,137.711 627.262,130.804 619.587,131.955C611.913,133.106 536.128,137.327 536.128,137.327L445.804,141.186Z" style="fill:rgb(166,0,104);stroke:black;stroke-width:1px;"/>
            </g>
        </g>
    </g>
</svg>
